<svg width="136" height="142" viewBox="0 0 136 142" fill="none" xmlns="http://www.w3.org/2000/svg">
<g opacity="0.23">
<path d="M98.108 83.5102C100.69 87.6377 103.454 92.7273 105.588 98.1426C108.018 104.326 109.121 110.806 109.525 117.378C110.195 128.452 107.949 138.969 103.04 148.888C98.8406 157.429 93.5084 165.143 86.6009 171.716C82.7171 175.42 78.5867 178.803 73.9268 181.489C69.7082 183.93 65.2367 185.855 60.4613 186.938C57.3679 187.655 54.2453 187.831 51.1175 187.131C49.7251 186.831 48.411 186.28 47.1451 185.618C44.4942 184.172 43.0384 181.915 42.4954 179.029C42.178 177.236 42.2519 175.43 42.5579 173.675C43.1518 170.135 44.2743 166.735 45.8874 163.537C47.2974 160.829 48.8003 158.142 50.164 155.425C52.8412 150.222 55.472 145.009 58.0664 139.74C59.4118 136.995 60.517 134.125 61.5012 131.252C63.5878 125.072 64.4013 118.715 64.0809 112.209C63.8003 106.757 62.2757 101.667 59.7508 96.8236C56.0221 89.6799 50.6478 84.1969 43.7526 80.1343C42.6542 79.4844 41.4894 78.9173 40.3145 78.3965C33.0979 75.2604 25.5362 73.3856 17.6777 72.6611C10.9168 72.0278 4.23578 72.2617 -2.48893 72.9235C-7.74929 73.4397 -13.036 73.8532 -18.2764 74.2766C-20.5516 74.4656 -22.8514 74.4308 -25.1029 74.2849C-25.7263 74.2475 -26.3197 74.0709 -26.8266 73.7186C-27.6747 73.147 -28.5228 72.5753 -29.3992 72.0219C-30.5704 71.2591 -31.3365 70.1951 -31.8287 68.8745C-33.3863 64.7252 -33.4713 60.5051 -31.8253 56.3672C-30.0046 51.7569 -27.0873 47.9176 -23.5157 44.5353C-17.1944 38.5404 -9.62662 35.0976 -1.00432 33.971C6.14362 33.0363 13.2632 33.3585 20.2916 34.7782C26.1597 35.9474 31.8512 37.7101 37.5326 39.5191C44.7338 41.8262 51.7621 44.4845 58.6037 47.7826C68.8571 52.7156 77.8361 59.3895 85.6454 67.6567C90.026 72.3424 94.0862 77.2747 98.108 83.5102Z" fill="#C3972B"/>
<mask id="mask0_5_312" style="mask-type:alpha" maskUnits="userSpaceOnUse" x="-34" y="33" width="144" height="155">
<path d="M98.108 83.5102C100.69 87.6377 103.454 92.7273 105.588 98.1426C108.018 104.326 109.121 110.806 109.525 117.378C110.195 128.452 107.949 138.969 103.04 148.888C98.8406 157.429 93.5084 165.143 86.6009 171.716C82.7171 175.42 78.5867 178.803 73.9268 181.489C69.7082 183.93 65.2367 185.855 60.4613 186.938C57.3679 187.655 54.2453 187.831 51.1175 187.131C49.7251 186.831 48.411 186.28 47.1451 185.618C44.4942 184.172 43.0384 181.915 42.4954 179.029C42.178 177.236 42.2519 175.43 42.5579 173.675C43.1518 170.135 44.2743 166.735 45.8874 163.537C47.2974 160.829 48.8003 158.142 50.164 155.425C52.8412 150.222 55.472 145.009 58.0664 139.74C59.4118 136.995 60.517 134.125 61.5012 131.252C63.5878 125.072 64.4013 118.715 64.0809 112.209C63.8003 106.757 62.2757 101.667 59.7508 96.8236C56.0221 89.6799 50.6478 84.1969 43.7526 80.1343C42.6542 79.4844 41.4894 78.9173 40.3145 78.3965C33.0979 75.2604 25.5362 73.3856 17.6777 72.6611C10.9168 72.0278 4.23578 72.2617 -2.48893 72.9235C-7.74929 73.4397 -13.036 73.8532 -18.2764 74.2766C-20.5516 74.4656 -22.8514 74.4308 -25.1029 74.2849C-25.7263 74.2475 -26.3197 74.0709 -26.8266 73.7186C-27.6747 73.147 -28.5228 72.5753 -29.3992 72.0219C-30.5704 71.2591 -31.3365 70.1951 -31.8287 68.8745C-33.3863 64.7252 -33.4713 60.5051 -31.8253 56.3672C-30.0046 51.7569 -27.0873 47.9176 -23.5157 44.5353C-17.1944 38.5404 -9.62662 35.0976 -1.00432 33.971C6.14362 33.0363 13.2632 33.3585 20.2916 34.7782C26.1597 35.9474 31.8512 37.7101 37.5326 39.5191C44.7338 41.8262 51.7621 44.4845 58.6037 47.7826C68.8571 52.7156 77.8361 59.3895 85.6454 67.6567C90.026 72.3424 94.0862 77.2747 98.108 83.5102Z" fill="black"/>
</mask>
<g mask="url(#mask0_5_312)">
<path d="M27.2302 124.873C27.2478 125.143 27.2753 125.246 27.2563 125.339C27.0042 130.375 28.0286 135.212 29.5281 139.976C31.3401 145.822 33.7118 151.418 36.2701 156.932C38.1911 161.055 40.2522 165.086 42.4439 169.07C44.4969 172.784 46.6339 176.443 49.0415 179.963C51.2544 183.249 53.8319 186.174 57.0731 188.458C63.7319 193.112 70.8898 193.894 78.4253 190.924C85.0655 188.305 90.0374 183.649 93.5902 177.517C98.4085 169.22 99.3738 160.331 97.1186 151.075C96.431 148.27 95.3982 145.612 94.0579 143.037C93.9838 142.925 93.9097 142.812 93.7801 142.616C93.4811 142.895 93.182 143.173 92.911 143.433C87.322 148.738 81.0299 152.857 73.7474 155.418C68.8147 157.15 63.7552 157.959 58.5332 157.427C53.7394 156.933 49.3315 155.38 45.5254 152.302C42.5548 149.879 40.406 146.872 39.6105 143.051C38.6318 138.466 39.8211 134.298 42.6288 130.631C43.5553 129.415 44.6955 128.339 45.7617 127.151C45.7151 127.141 45.557 127.085 45.4175 127.057C42.4106 126.831 40.4517 125.268 39.513 122.387C39.0714 120.989 38.9279 119.554 38.98 118.111C39.0539 115.848 39.5559 113.625 40.2811 111.495C41.948 106.65 44.5624 102.386 47.7902 98.4406C52.4121 92.7687 57.9427 88.106 64.3536 84.592C67.3584 82.9274 70.5575 81.6174 73.8577 80.643C74.1188 80.5509 74.3519 80.4773 74.6035 80.4317C74.6505 80.3201 74.688 80.2551 74.6789 80.1806C75.3246 74.5213 75.2064 68.9244 73.7191 63.3873C72.7732 59.9476 71.3141 56.7666 69.0993 53.9645C64.9569 48.7338 59.5473 46.1522 52.8798 46.1732C50.7939 46.1838 48.744 46.4925 46.7583 47.0809C46.5812 47.1175 46.3947 47.2005 46.2081 47.2836C46.2262 47.4327 46.1977 47.5723 46.2438 47.7028C47.5958 54.4965 47.5973 61.378 46.8075 68.2193C45.9797 75.2467 44.2774 82.0472 41.5145 88.583C40.0299 92.06 38.2105 95.396 35.7968 98.32C34.2907 100.121 32.5899 101.688 30.5273 102.891C29.51 103.483 28.3816 103.907 27.2262 104.107C24.2445 104.589 21.8461 103.518 19.9646 101.22C18.565 99.5295 17.781 97.5524 17.1932 95.4456C16.2116 91.5867 16.1614 87.6754 16.67 83.757C17.543 77.1023 19.8852 70.9654 23.2225 65.1768C25.8099 60.6891 29.0287 56.6693 32.9064 53.2202C36.0925 50.4295 39.5839 48.1615 43.5287 46.6401C43.7898 46.548 44.0044 46.4464 44.2935 46.3358C44.2664 46.1122 44.2298 45.9351 44.1933 45.758C43.3309 42.3838 42.0489 39.1662 40.0112 36.3275C35.4353 30.015 29.2352 27.1511 21.4754 27.8942C17.3487 28.288 13.664 29.9593 10.2842 32.2744C7.63253 34.108 5.32413 36.2781 3.24742 38.7378C3.0884 38.9234 2.92938 39.1091 2.81689 39.3042C3.42747 40.3495 4.04754 41.3482 4.6396 42.3655C7.01686 46.5092 8.73192 50.9297 9.86878 55.5714C11.528 62.4035 12.0602 69.2964 11.0463 76.2858C10.5396 79.72 9.64217 83.0503 8.05637 86.1916C7.02449 88.1618 5.77896 89.9915 4.00455 91.3256C3.3134 91.8631 2.53869 92.335 1.71792 92.6764C-0.949455 93.7556 -3.65639 93.0096 -5.71496 90.7482C-7.26364 89.0754 -8.18714 87.0698 -8.91458 84.9345C-9.09882 84.4123 -9.37656 83.9922 -9.78486 83.6182C-13.1623 80.4577 -15.8766 76.7784 -18.0677 72.6727C-21.7844 65.7117 -23.73 58.2639 -23.8673 50.3854C-23.9274 46.6417 -23.5223 42.993 -22.4004 39.3936C-21.6083 36.8172 -20.4815 34.3818 -18.6392 32.3588C-15.9554 29.4172 -12.7017 28.4333 -8.86017 29.5562C-6.32082 30.2923 -4.17543 31.7718 -2.20804 33.5301C-0.881092 34.7457 0.352345 36.0634 1.41774 37.4923C1.61239 37.7258 1.78853 37.9314 2.02022 38.2209C2.26326 37.9798 2.45028 37.7756 2.66531 37.5529C4.97557 34.8986 7.57354 32.4968 10.5328 30.5805C14.3323 28.1088 18.4637 26.5044 23.0457 26.373C31.5204 26.1635 37.9128 29.8663 42.3364 37.0442C43.8263 39.4803 44.859 42.1382 45.6027 44.9067C45.6668 45.1864 45.7774 45.4755 45.8785 45.8111C46.1862 45.7284 46.4658 45.6643 46.7454 45.6002C51.1915 44.4719 55.6245 44.3586 59.9958 45.7349C65.2136 47.3566 69.0933 50.668 71.9345 55.2697C74.7665 59.7969 76.0511 64.7838 76.5243 70.0655C76.7828 73.0743 76.7247 76.0911 76.4524 79.0886C76.442 79.3772 76.4036 79.6843 76.3836 80.0195C76.7378 79.9464 77.0359 79.9103 77.3155 79.8461C81.0895 79.1622 84.8896 78.944 88.6955 79.6477C98.8756 81.5306 105.567 87.4508 108.611 97.3519C110.11 102.237 110.231 107.229 109.587 112.283C108.618 119.766 105.798 126.581 101.705 132.869C99.8408 135.712 97.7727 138.367 95.4724 140.854C95.3414 141.021 95.1918 141.16 95.0048 141.364C95.4668 142.306 95.9568 143.23 96.3722 144.163C102.228 156.794 101.171 172.546 91.0415 184.072C87.2535 188.388 82.6689 191.62 77.1404 193.303C68.6659 195.887 61.018 194.182 54.2328 188.484C51.9957 186.623 50.0953 184.418 48.4563 182C46.1693 178.601 44.0598 175.045 42.0809 171.443C39.14 166.143 36.4512 160.676 34.0981 155.107C31.6618 149.353 29.4771 143.552 28.0292 137.466C27.1222 133.598 26.6343 129.694 26.9848 125.719C26.9948 125.552 27.0142 125.338 27.0242 125.17C27.0617 125.105 27.0897 125.086 27.2302 124.873ZM55.9583 122.301C56.359 122.238 56.6011 122.239 56.8061 122.184C59.8628 121.571 62.9177 121.443 66.0266 121.763C72.4212 122.486 78.167 124.845 83.3954 128.553C87.4816 131.446 90.8761 134.997 93.6165 139.142C93.7647 139.366 93.9593 139.6 94.1445 139.88C94.3595 139.657 94.5371 139.5 94.6866 139.361C95.8562 137.903 97.1374 136.493 98.2419 134.998C102.866 128.721 106.124 121.777 107.485 114.035C108.351 109.196 108.426 104.317 107.327 99.4887C106.384 95.3226 104.629 91.5724 101.764 88.3954C98.6205 84.9192 94.7271 82.7439 90.2058 81.6277C85.6379 80.502 81.0464 80.6799 76.4892 81.6402C76.3866 81.6677 76.3026 81.7233 76.2186 81.7788C76.1811 81.8439 76.1436 81.9089 76.1341 81.9554C76.1056 82.095 76.0677 82.2811 76.0392 82.4207C74.6257 91.6062 71.5198 100.18 66.9631 108.264C64.4878 112.678 61.5667 116.782 57.9957 120.391C57.3695 120.966 56.7154 121.559 55.9583 122.301ZM92.9849 141.17C92.7907 140.815 92.6335 140.517 92.4388 140.283C91.457 138.92 90.4847 137.51 89.4188 136.202C84.8212 130.709 79.1 126.804 72.2918 124.664C64.8698 122.326 57.5785 122.317 50.4689 125.931C47.278 127.557 44.6714 129.763 42.7695 132.792C39.565 137.929 39.9149 143.816 43.6679 148.579C45.6325 151.064 48.1027 152.852 50.9658 154.139C54.3868 155.66 57.9881 156.298 61.7037 156.256C67.8035 156.168 73.472 154.393 78.9021 151.648C83.1194 149.504 86.9383 146.818 90.4239 143.628C91.2651 142.83 92.0877 142.005 92.9849 141.17ZM44.6791 47.7713C44.3715 47.8539 44.2224 47.872 44.0639 47.9365C41.1729 49.0429 38.5036 50.6064 36.0381 52.4779C32.7974 54.9425 29.9739 57.8556 27.5588 61.1428C22.429 68.1164 19.0938 75.7953 17.9898 84.414C17.5676 87.6715 17.6015 90.9495 18.2503 94.1832C18.68 96.2335 19.3524 98.1637 20.547 99.9096C22.4546 102.673 25.2261 103.578 28.3687 102.426C30.3644 101.67 32.0082 100.382 33.4574 98.8604C35.8603 96.3461 37.6222 93.4103 39.1055 90.2964C41.5181 85.24 43.1122 79.9196 44.1761 74.4669C45.6201 67.0321 46.1146 59.5006 45.2591 51.936C45.1526 50.5574 44.8971 49.1969 44.6791 47.7713ZM74.3268 82.144C74.0472 82.2082 73.7956 82.2537 73.5906 82.3088C70.598 83.2006 67.716 84.3815 64.9632 85.8794C58.6179 89.3098 53.2458 93.9079 48.7359 99.5058C45.7417 103.256 43.2398 107.325 41.6579 111.873C40.8857 114.114 40.3646 116.431 40.3648 118.805C40.3416 119.988 40.5141 121.162 40.9381 122.29C41.7951 124.622 43.6528 125.849 46.1119 125.672C46.9037 125.591 47.733 125.445 48.4698 125.159C50.484 124.431 52.304 123.349 53.9573 122.014C56.3018 120.142 58.3401 117.99 60.1557 115.622C67.6057 105.827 72.2016 94.8188 74.278 82.7398C74.3065 82.6003 74.2979 82.4047 74.3268 82.144ZM-7.03792 86.0685C-6.21696 88.1016 -5.14393 89.9682 -3.17422 91.1211C-1.64126 92.0396 -0.0300598 91.9806 1.52792 91.2323C2.01307 90.992 2.53571 90.6868 2.96531 90.3625C4.36613 89.3156 5.39569 87.9507 6.25814 86.4548C7.65505 84.0018 8.53118 81.3698 9.11914 78.6064C10.1816 73.5168 10.2852 68.377 9.69042 63.2159C8.8795 56.145 6.94969 49.4515 3.47232 43.2177C2.95433 42.3125 2.40832 41.4258 1.86232 40.539C1.75029 40.6131 1.67576 40.6221 1.64776 40.6406C1.42323 40.9098 1.19871 41.179 1.02071 41.4577C-5.83303 51.181 -9.30143 62.0069 -9.35649 73.9167C-9.36904 77.1852 -8.9439 80.446 -8.01557 83.6157C-7.86837 84.0818 -7.63714 84.4924 -7.23788 84.792C-6.40231 85.447 -5.57624 86.1486 -4.75017 86.8502C-4.58305 86.9812 -4.49047 87.1212 -4.32336 87.2522C-5.41284 87.248 -6.10838 86.5004 -7.03792 86.0685ZM1.04713 39.4278C0.954553 39.2877 0.908493 39.1572 0.834427 39.0451C-1.06467 36.477 -3.2068 34.1501 -5.854 32.3986C-7.28441 31.4526 -8.8183 30.7763 -10.5026 30.4811C-12.9874 30.0711 -15.1596 30.7426 -17.0565 32.4394C-18.4208 33.6633 -19.4043 35.1588 -20.1741 36.7947C-21.2724 39.0906 -21.915 41.5279 -22.2599 44.0501C-23.1016 49.8389 -22.6208 55.5584 -21.2085 61.2255C-19.3285 68.7568 -15.9555 75.5023 -10.791 81.3049C-10.4943 81.632 -10.1975 81.9591 -9.87279 82.2676C-11.3427 74.6261 -10.8111 67.1506 -8.86439 59.7457C-6.93619 52.3128 -3.6602 45.5183 1.04713 39.4278Z" fill="black"/>
</g>
</g>
</svg>
