<svg width="187" height="79" viewBox="0 0 187 79" fill="none" xmlns="http://www.w3.org/2000/svg">
<g opacity="0.23">
<path d="M67.7644 57.681C63.0176 56.5979 57.4615 54.9641 52.1185 52.6548C46.0225 50.0129 40.6529 46.2217 35.7121 41.8697C27.3929 34.5298 21.5257 25.5165 17.9628 15.0388C14.8744 6.03584 13.1717 -3.18596 13.3894 -12.7183C13.5061 -18.0837 14.0238 -23.3976 15.4093 -28.5948C16.6566 -33.3065 18.4481 -37.8332 21.0511 -41.9805C22.7263 -44.678 24.8051 -47.0147 27.5079 -48.7374C28.7034 -49.5119 30.021 -50.0542 31.3832 -50.4841C34.2787 -51.3416 36.9054 -50.7802 39.3333 -49.1283C40.8276 -48.0879 42.0547 -46.7613 43.0826 -45.3057C45.1711 -42.3873 46.7885 -39.192 47.9159 -35.7924C48.839 -32.8828 49.6825 -29.9216 50.6454 -27.0378C52.4423 -21.4695 54.279 -15.927 56.1814 -10.3705C57.1772 -7.47965 58.4309 -4.67107 59.7714 -1.94695C62.6775 3.89279 66.608 8.9558 71.4433 13.3195C75.5044 16.9685 80.1863 19.4797 85.4 21.109C93.0927 23.5085 100.77 23.5701 108.514 21.5516C109.75 21.232 110.974 20.8069 112.172 20.342C119.487 17.4421 126.151 13.4075 132.21 8.35091C137.43 4.0076 141.979 -0.891099 146.256 -6.12264C149.602 -10.214 153.04 -14.2515 156.438 -18.2632C157.91 -20.0087 159.558 -21.6135 161.25 -23.1058C161.716 -23.5211 162.26 -23.8169 162.867 -23.9274C163.871 -24.1249 164.874 -24.3224 165.885 -24.5528C167.252 -24.8443 168.546 -24.6363 169.829 -24.0531C173.868 -22.2285 176.918 -19.3107 178.689 -15.2243C180.67 -10.6809 181.332 -5.90455 181.208 -0.987109C180.994 7.72217 178.093 15.5137 172.807 22.4177C168.425 28.1417 163.172 32.9588 157.206 36.9366C152.237 40.2691 146.972 43.0578 141.68 45.8065C134.964 49.2807 128.121 52.3843 120.956 54.9043C110.225 58.6878 99.1601 60.3399 87.7915 60.0387C81.3803 59.8358 75.0205 59.2319 67.7644 57.681Z" fill="#C3972B"/>
<mask id="mask0_5_316" style="mask-type:alpha" maskUnits="userSpaceOnUse" x="13" y="-51" width="169" height="112">
<path d="M67.7644 57.681C63.0176 56.5979 57.4615 54.9641 52.1185 52.6548C46.0225 50.0129 40.6529 46.2217 35.7121 41.8697C27.3929 34.5298 21.5257 25.5165 17.9628 15.0388C14.8744 6.03584 13.1717 -3.18596 13.3894 -12.7183C13.5061 -18.0837 14.0238 -23.3976 15.4093 -28.5948C16.6566 -33.3065 18.4481 -37.8332 21.0511 -41.9805C22.7263 -44.678 24.8051 -47.0147 27.5079 -48.7374C28.7034 -49.5119 30.021 -50.0542 31.3832 -50.4841C34.2787 -51.3416 36.9054 -50.7802 39.3333 -49.1283C40.8276 -48.0879 42.0547 -46.7613 43.0826 -45.3057C45.1711 -42.3873 46.7885 -39.192 47.9159 -35.7924C48.839 -32.8828 49.6825 -29.9216 50.6454 -27.0378C52.4423 -21.4695 54.279 -15.927 56.1814 -10.3705C57.1772 -7.47965 58.4309 -4.67107 59.7714 -1.94695C62.6775 3.89279 66.608 8.9558 71.4433 13.3195C75.5044 16.9685 80.1863 19.4797 85.4 21.109C93.0927 23.5085 100.77 23.5701 108.514 21.5516C109.75 21.232 110.974 20.8069 112.172 20.342C119.487 17.4421 126.151 13.4075 132.21 8.35091C137.43 4.0076 141.979 -0.891099 146.256 -6.12264C149.602 -10.214 153.04 -14.2515 156.438 -18.2632C157.91 -20.0087 159.558 -21.6135 161.25 -23.1058C161.716 -23.5211 162.26 -23.8169 162.867 -23.9274C163.871 -24.1249 164.874 -24.3224 165.885 -24.5528C167.252 -24.8443 168.546 -24.6363 169.829 -24.0531C173.868 -22.2285 176.918 -19.3107 178.689 -15.2243C180.67 -10.6809 181.332 -5.90455 181.208 -0.987109C180.994 7.72217 178.093 15.5137 172.807 22.4177C168.425 28.1417 163.172 32.9588 157.206 36.9366C152.237 40.2691 146.972 43.0578 141.68 45.8065C134.964 49.2807 128.121 52.3843 120.956 54.9043C110.225 58.6878 99.1601 60.3399 87.7915 60.0387C81.3803 59.8358 75.0205 59.2319 67.7644 57.681Z" fill="black"/>
</mask>
<g mask="url(#mask0_5_316)">
<path d="M88.4762 -21.7265C88.2724 -21.9047 88.1803 -21.9575 88.1278 -22.0366C84.737 -25.7697 80.5871 -28.4573 76.1534 -30.7569C70.733 -33.5983 65.0942 -35.8672 59.3827 -37.9452C55.1056 -39.4939 50.7952 -40.878 46.4254 -42.1372C42.3452 -43.3036 38.245 -44.3712 34.052 -45.1494C30.1619 -45.9006 26.2709 -46.1382 22.365 -45.4541C14.3687 -44.0202 8.76354 -39.5004 5.54973 -32.0658C2.71947 -25.5128 2.50936 -18.7048 4.34699 -11.86C6.82543 -2.59099 12.4424 4.36607 20.5916 9.29976C23.0646 10.7924 25.6766 11.9364 28.447 12.804C28.5787 12.8306 28.7103 12.8572 28.9407 12.9037C28.9546 12.4955 28.9685 12.0873 28.9758 11.712C29.1612 4.00842 30.6827 -3.35688 34.0075 -10.3238C36.2616 -15.0407 39.2586 -19.1966 43.3208 -22.5209C47.0533 -25.5693 51.2646 -27.5961 56.1315 -28.1205C59.9447 -28.5151 63.5914 -27.9158 66.86 -25.783C70.7995 -23.2406 72.9127 -19.4572 73.5298 -14.8798C73.7377 -13.365 73.6953 -11.7979 73.7846 -10.2043C73.8241 -10.2306 73.9757 -10.3027 74.0944 -10.3815C76.3762 -12.3527 78.8657 -12.6378 81.5695 -11.2698C82.872 -10.5958 83.9897 -9.68507 84.9754 -8.62972C86.5263 -6.98072 87.7475 -5.05579 88.7446 -3.03907C91.0012 1.5611 92.1774 6.42266 92.6949 11.4937C93.4518 18.771 92.8525 25.98 90.8181 33.002C89.877 36.3057 88.5476 39.4967 86.9091 42.5226C86.7901 42.7726 86.6778 42.9897 86.5325 43.2001C86.5784 43.3121 86.598 43.3846 86.6572 43.4308C90.2112 47.8819 94.2602 51.7479 99.2328 54.6016C102.337 56.3588 105.621 57.5699 109.169 57.9781C115.798 58.7344 121.445 56.7233 126.135 51.9845C127.6 50.4991 128.828 48.8289 129.812 47.0068C129.911 46.8555 129.984 46.6647 130.057 46.4739C129.939 46.3815 129.86 46.2628 129.735 46.2033C123.967 42.3671 119.09 37.5119 114.801 32.1244C110.406 26.5787 106.789 20.5735 104.108 14.0037C102.692 10.4981 101.612 6.85489 101.244 3.08127C101.031 0.743364 101.121 -1.56765 101.724 -3.87771C102.023 -5.01629 102.519 -6.11499 103.192 -7.07509C104.955 -9.52788 107.406 -10.4715 110.362 -10.1829C112.547 -9.98137 114.501 -9.14153 116.409 -8.07131C119.836 -6.04354 122.642 -3.31894 125.06 -0.193411C129.159 5.1213 131.854 11.1116 133.6 17.5611C134.954 22.5613 135.53 27.6785 135.238 32.86C134.967 37.0868 134.11 41.1611 132.404 45.0296C132.285 45.2796 132.205 45.5033 132.08 45.7862C132.257 45.9248 132.408 46.0239 132.56 46.1229C135.559 47.8931 138.743 49.2554 142.193 49.8149C149.894 51.0275 156.299 48.6557 161.248 42.6334C163.882 39.4316 165.298 35.6415 166.042 31.6131C166.615 28.4404 166.706 25.2734 166.429 22.0662C166.41 21.8226 166.39 21.5789 166.331 21.3615C165.16 21.0565 164.015 20.791 162.876 20.4926C158.263 19.2527 153.92 17.3484 149.829 14.8782C143.818 11.2325 138.558 6.74526 134.322 1.09449C132.246 -1.68802 130.52 -4.674 129.413 -8.0144C128.746 -10.1359 128.328 -12.3095 128.635 -14.5082C128.742 -15.3772 128.954 -16.2591 129.292 -17.0815C130.409 -19.7331 132.848 -21.1245 135.903 -20.9872C138.181 -20.9039 140.254 -20.1429 142.28 -19.1515C142.78 -18.9135 143.274 -18.8138 143.827 -18.8391C148.45 -19.0018 152.972 -18.3284 157.427 -16.9836C164.982 -14.7045 171.632 -10.8271 177.311 -5.36466C180.006 -2.76538 182.305 0.0965515 184.064 3.43157C185.33 5.81093 186.26 8.32794 186.394 11.0608C186.584 15.0382 184.985 18.0378 181.478 19.9672C179.165 21.2469 176.603 21.7228 173.968 21.876C172.171 21.9583 170.367 21.9023 168.603 21.6488C168.3 21.6219 168.03 21.6017 167.661 21.5615C167.66 21.9039 167.673 22.1805 167.679 22.4899C167.929 26 167.798 29.5356 167.067 32.9846C166.137 37.4208 164.358 41.4802 161.218 44.8194C155.386 50.9718 148.251 52.8879 140.044 50.9566C137.266 50.2931 134.655 49.1491 132.168 47.7223C131.925 47.5704 131.642 47.4447 131.333 47.2796C131.174 47.5558 131.022 47.7992 130.87 48.0425C128.532 51.9889 125.484 55.2097 121.424 57.3356C116.593 59.8881 111.509 60.3002 106.244 59.0657C101.038 57.8775 96.5978 55.2684 92.5216 51.8764C90.2074 49.9363 88.1109 47.7661 86.1794 45.458C85.9822 45.2469 85.7917 45.0029 85.5683 44.7523C85.3702 45.0548 85.1854 45.2915 85.0335 45.5349C82.8548 48.6914 80.3276 51.5379 77.1433 53.7378C68.6252 59.6219 59.7087 60.1848 50.5453 55.3546C46.0261 52.9693 42.4044 49.5321 39.2776 45.5097C34.6596 39.5422 31.8211 32.7351 30.2543 25.397C29.5559 22.0706 29.1341 18.7314 28.9954 15.3467C28.9695 15.1359 28.9765 14.9318 28.9638 14.6553C27.9702 14.3176 26.9699 14.0129 26.0158 13.649C12.9345 8.88397 2.51987 -2.98084 1.50117 -18.2918C1.11667 -24.021 2.06186 -29.5503 4.77094 -34.6549C8.92047 -42.4829 15.526 -46.698 24.3507 -47.485C27.2484 -47.7562 30.1518 -47.5467 33.0217 -47.0015C37.0434 -46.2237 41.0515 -45.2089 45.0001 -44.0691C50.831 -42.4122 56.602 -40.4591 62.2079 -38.1968C68.0046 -35.8618 73.656 -33.3163 78.99 -30.0471C82.3706 -27.9602 85.4807 -25.5511 88.0496 -22.4977C88.1613 -22.3724 88.2993 -22.2075 88.411 -22.0822C88.4306 -22.0097 88.424 -21.9768 88.4762 -21.7265ZM70.0249 0.442541C69.7873 0.771329 69.6157 0.942214 69.51 1.12638C67.7867 3.7241 65.7216 5.97879 63.3014 7.95628C58.2766 11.9767 52.5501 14.3827 46.2336 15.4707C41.3002 16.3242 36.3883 16.2229 31.5175 15.2394C31.2542 15.1863 30.9514 15.1594 30.6223 15.0929C30.6283 15.4024 30.6147 15.6394 30.6077 15.8435C30.815 17.7007 30.9103 19.6038 31.19 21.4414C32.3742 29.1476 34.9947 36.3559 39.5196 42.7842C42.337 46.8125 45.7413 50.3086 49.9374 52.937C53.5547 55.2087 57.4502 56.6119 61.7231 56.8239C66.4043 57.0498 70.6931 55.8264 74.6747 53.4106C78.6957 50.9686 81.8099 47.5899 84.3455 43.6833C84.3984 43.5912 84.4183 43.4925 84.4383 43.3938C84.4186 43.3213 84.399 43.2488 84.3727 43.2093C84.294 43.0906 84.1889 42.9324 84.1101 42.8137C78.5995 35.3301 74.7166 27.0791 72.2047 18.1458C70.8243 13.2773 69.9775 8.31099 69.9407 3.23424C69.9752 2.38489 70.0164 1.50264 70.0249 0.442541ZM30.5267 13.361C30.915 13.4736 31.2375 13.573 31.5403 13.5999C33.1991 13.8663 34.8842 14.1723 36.5629 14.34C43.6994 14.959 50.5037 13.6612 56.8244 10.3477C63.7185 6.7389 68.8705 1.57954 71.3274 -6.00791C72.4267 -9.41668 72.7029 -12.8204 71.8995 -16.3051C70.521 -22.2008 66.1034 -26.107 60.0798 -26.8095C56.9331 -27.1709 53.923 -26.6826 50.9909 -25.562C47.4986 -24.212 44.5053 -22.1105 41.9127 -19.4485C37.6707 -15.0645 34.9284 -9.79532 33.0411 -4.01099C31.5842 0.490156 30.7922 5.09129 30.5925 9.81204C30.5641 10.9709 30.5685 12.1363 30.5267 13.361ZM130.79 45.0464C130.949 44.7701 131.041 44.6518 131.107 44.4939C132.364 41.6648 133.14 38.6703 133.554 35.6027C134.094 31.5673 134.023 27.5111 133.398 23.4802C132.077 14.9245 128.99 7.14244 123.663 0.278099C121.653 -2.31992 119.306 -4.60908 116.557 -6.43149C114.801 -7.57386 112.959 -8.45958 110.879 -8.84532C107.575 -9.44403 104.978 -8.11874 103.577 -5.07926C102.704 -3.13185 102.457 -1.05818 102.512 1.0424C102.598 4.5192 103.434 7.83935 104.594 11.0877C106.474 16.3654 109.118 21.2494 112.231 25.8511C116.48 32.1209 121.467 37.7862 127.43 42.5183C128.482 43.4158 129.627 44.1948 130.79 45.0464ZM85.5145 41.7957C85.6664 41.5524 85.8116 41.3419 85.9173 41.1578C87.3973 38.4082 88.5944 35.5329 89.4757 32.5254C91.5231 25.6088 92.0563 18.5578 91.2727 11.4121C90.7284 6.64387 89.6111 1.9997 87.5054 -2.33023C86.4624 -4.45896 85.1887 -6.46301 83.5061 -8.13859C82.6846 -8.98951 81.7312 -9.69582 80.6325 -10.1917C78.3759 -11.2296 76.1956 -10.7793 74.5855 -8.91227C74.0839 -8.29425 73.602 -7.60376 73.2846 -6.88004C72.3789 -4.93927 71.8615 -2.88585 71.6404 -0.772621C71.3122 2.20957 71.3989 5.17278 71.7951 8.12997C73.478 20.3211 78.034 31.3454 85.1268 41.3407C85.2056 41.4593 85.3502 41.5913 85.5145 41.7957ZM140.153 -18.6221C138.133 -19.4752 136.053 -20.0321 133.846 -19.4502C132.114 -19.0122 131.018 -17.829 130.449 -16.1971C130.277 -15.6838 130.124 -15.0981 130.051 -14.5649C129.804 -12.8336 130.045 -11.1409 130.496 -9.47418C131.248 -6.75337 132.495 -4.27528 134.038 -1.90859C136.894 2.4359 140.462 6.13641 144.539 9.35719C150.121 13.7725 156.225 17.1288 163.096 19.0641C164.103 19.3359 165.117 19.5749 166.13 19.8138C166.157 19.6821 166.203 19.6229 166.21 19.59C166.177 19.241 166.145 18.892 166.073 18.5692C164.021 6.85149 158.798 -3.24567 150.398 -11.6894C148.092 -14.0048 145.481 -16.0047 142.58 -17.5838C142.146 -17.8085 141.692 -17.9344 141.198 -17.8629C140.144 -17.7332 139.064 -17.643 137.984 -17.5528C137.774 -17.5268 137.609 -17.56 137.398 -17.5341C138.17 -18.3031 139.191 -18.2683 140.153 -18.6221ZM167.493 20.0204C167.657 20.0536 167.782 20.1131 167.914 20.1397C171.074 20.6064 174.234 20.7308 177.343 20.0912C179.023 19.7454 180.584 19.1359 181.982 18.1508C184.026 16.6796 185.083 14.6667 185.22 12.1253C185.315 10.295 184.95 8.54282 184.334 6.84287C183.482 4.44452 182.209 2.26927 180.665 0.244971C177.158 -4.43653 172.766 -8.13197 167.754 -11.1306C161.092 -15.1134 153.932 -17.4838 146.176 -17.9196C145.735 -17.9401 145.294 -17.9607 144.846 -17.9484C151.297 -13.5972 156.219 -7.94521 160.092 -1.34035C163.997 5.27116 166.499 12.3871 167.493 20.0204Z" fill="black"/>
</g>
</g>
</svg>
