<svg width="85" height="80" viewBox="0 0 85 80" fill="none" xmlns="http://www.w3.org/2000/svg">
<path d="M45.7331 53.2499L45.2007 53.1834L45.2053 52.852C43.4205 52.7641 41.5212 52.7415 39.5041 52.8014L39.5087 53.1834L38.9763 53.2499L38.999 54.0811C40.1776 54.0425 41.4021 54.0332 42.6771 54.0612C43.7313 54.0845 44.7402 54.1237 45.7085 54.177L45.7331 53.2499Z" fill="#C3972B"/>
<path d="M65.5415 65.8424V59.3206H65.3019V65.8424H65.5415Z" fill="#C3972B"/>
<path d="M64.9764 65.8424V59.0377L63.9882 58.4641V65.8424H64.9764Z" fill="#C3972B"/>
<path d="M63.6648 65.8424V58.4787L62.1275 57.8565V65.8424H63.6648Z" fill="#C3972B"/>
<path d="M57.7292 65.8424V56.2427L56.329 55.9432V65.8424H57.7292Z" fill="#C3972B"/>
<path d="M55.8207 65.8424V55.7436H54.5329V65.8424H55.8207Z" fill="#C3972B"/>
<path d="M48.6686 65.8424V54.5457H47.0215V65.8424H48.6686Z" fill="#C3972B"/>
<path d="M46.4319 65.8424V54.4126H45.6586V65.8424H46.4319Z" fill="#C3972B"/>
<path d="M39.0262 65.8424V54.3959H38.2776V65.8424H39.0262Z" fill="#C3972B"/>
<path d="M37.6634 65.8424V54.4958H36.0163V65.8424H37.6634Z" fill="#C3972B"/>
<path d="M29.4039 65.8424V54.8864L28.5295 55.8347L28.1908 55.8767V65.8424H29.4039Z" fill="#C3972B"/>
<path d="M27.6823 65.8424V56.043L26.2821 56.276V65.8424H27.6823Z" fill="#C3972B"/>
<path d="M21.7592 65.8424V57.8312L20.2469 58.3789V65.8424H21.7592Z" fill="#C3972B"/>
<path d="M19.923 65.8424V58.3643L18.9348 58.8295V65.8424H19.923Z" fill="#C3972B"/>
<path d="M18.6098 65.8424V59.0291L18.3702 59.1955V65.8424H18.6098Z" fill="#C3972B"/>
<path d="M21.5418 48.7639C21.5418 48.7639 21.1092 50.1614 22.1408 49.7621L20.7432 51.0266L21.076 48.897L21.5418 48.7639Z" fill="#C3972B"/>
<path d="M23.3719 49.1631C23.3719 49.1631 24.0373 48.7639 24.4034 47.7323L24.8027 49.3628L23.3719 49.1631Z" fill="#C3972B"/>
<path d="M19.2459 52.1912C19.2459 52.1912 20.8431 36.0198 34.519 31.0286C48.1948 26.0374 60.1736 34.8219 63.0186 47.4615C63.0186 47.4615 59.399 33.813 46.4978 31.0286C32.6223 28.0339 21.9411 39.7132 21.1926 51.5543L19.2459 52.1912Z" fill="#C3972B"/>
<path d="M24.0974 49.406C24.0974 49.406 25.6917 35.3436 38.3123 30.729C38.3123 30.729 26.9989 35.7535 25.5348 49.6955L24.0974 49.406Z" fill="#C3972B"/>
<path d="M31.3245 47.0003C31.3245 47.0003 32.3135 35.1107 40.0092 30.4296C40.0092 30.4296 32.9217 36.0863 32.5723 47.0622L31.3245 47.0003Z" fill="#C3972B"/>
<path d="M39.2199 45.8123C39.2199 45.8123 39.1607 37.2175 40.8078 32.1265C40.8078 32.1265 39.8189 39.6738 40.1183 45.6626L39.2199 45.8123Z" fill="#C3972B"/>
<path d="M47.305 45.8123C47.305 45.8123 47.3462 40.5616 46.2981 35.0214C46.2981 35.0214 47.2963 37.3506 48.2034 46.2616L47.305 45.8123Z" fill="#C3972B"/>
<path d="M54.4171 47.0668C54.4171 47.0668 53.9513 41.1439 51.9881 37.1177C51.9881 37.1177 54.0431 40.1231 55.241 47.6092L54.4171 47.0668Z" fill="#C3972B"/>
<path d="M60.1816 49.2564C60.1816 49.2564 59.8076 45.2035 57.5782 40.9111C57.5782 40.9111 59.9407 44.4049 60.9303 49.5558L60.1816 49.2564Z" fill="#C3972B"/>
<path d="M43.7526 42.0423C44.0441 42.0423 44.3077 42.1615 44.4973 42.3531C44.5945 42.1947 44.651 42.0091 44.651 41.8094C44.651 41.2304 44.1819 40.7613 43.6029 40.7613C43.0239 40.7613 42.5547 41.2304 42.5547 41.8094C42.5547 42.0969 42.6705 42.3571 42.8582 42.5461C43.0419 42.2446 43.3733 42.0423 43.7526 42.0423Z" fill="#C3972B"/>
<path d="M43.5803 36.5101C43.8279 36.5101 44.0521 36.6119 44.2139 36.775C44.2957 36.6399 44.3443 36.4822 44.3443 36.3125C44.3443 35.82 43.945 35.4214 43.4532 35.4214C42.9607 35.4214 42.5621 35.82 42.5621 36.3125C42.5621 36.5567 42.6606 36.7776 42.8197 36.9387C42.976 36.6825 43.2582 36.5101 43.5803 36.5101Z" fill="#C3972B"/>
<path d="M43.38 31.9815C43.5284 31.9815 43.6628 32.0421 43.7593 32.1399C43.8092 32.0587 43.8378 31.9642 43.8378 31.8624C43.8378 31.5676 43.5982 31.328 43.3034 31.328C43.008 31.328 42.769 31.5676 42.769 31.8624C42.769 32.0088 42.8276 32.1419 42.9234 32.2384C43.0173 32.0847 43.1863 31.9815 43.38 31.9815Z" fill="#C3972B"/>
<path d="M51.6886 42.5881C51.5814 42.0198 51.1142 41.6351 50.6457 41.729C50.1772 41.8228 49.8844 42.3599 49.9916 42.9275C50.0022 42.9834 50.0168 43.0367 50.0341 43.0886C50.09 43.0606 50.1499 43.0393 50.2132 43.0267C50.6357 42.9422 51.0563 43.247 51.2134 43.7248C51.5741 43.5464 51.7811 43.0793 51.6886 42.5881Z" fill="#C3972B"/>
<path d="M49.989 36.6073C49.7461 36.1794 49.265 35.9984 48.9142 36.2027C48.5635 36.407 48.475 36.9194 48.7179 37.3473C48.7412 37.3893 48.7678 37.4279 48.7958 37.4645C48.8337 37.4272 48.8756 37.3933 48.9229 37.366C49.2397 37.1816 49.6616 37.3114 49.9191 37.6521C50.1607 37.4099 50.1986 36.9773 49.989 36.6073Z" fill="#C3972B"/>
<path d="M47.3795 31.9269C47.1432 31.7506 46.8351 31.7666 46.6914 31.9636C46.5476 32.1605 46.6228 32.4633 46.8591 32.6397C46.8823 32.657 46.9063 32.6723 46.9303 32.6856C46.9422 32.6557 46.9575 32.627 46.9768 32.6004C47.106 32.4227 47.3695 32.3928 47.5931 32.5179C47.667 32.3262 47.5838 32.0793 47.3795 31.9269Z" fill="#C3972B"/>
<path d="M57.4578 44.1946C57.2848 43.6436 56.8622 43.2915 56.5154 43.408C56.1681 43.5245 56.0276 44.0648 56.2007 44.6152C56.2313 44.7124 56.2705 44.8029 56.3145 44.8861C56.576 44.8634 56.8615 45.0757 57.0452 45.4211C57.0785 45.4178 57.1111 45.4125 57.1437 45.4018C57.4911 45.2853 57.6315 44.745 57.4578 44.1946Z" fill="#C3972B"/>
<path d="M54.8723 38.1652C54.6115 37.75 54.1882 37.551 53.928 37.7214C53.6678 37.8917 53.6678 38.3662 53.9293 38.7815C53.9753 38.8547 54.0265 38.9212 54.0811 38.9798C54.2914 38.9046 54.5715 39.0184 54.7965 39.2626C54.8231 39.2533 54.849 39.2413 54.8737 39.2254C55.1339 39.055 55.1332 38.5805 54.8723 38.1652Z" fill="#C3972B"/>
<path d="M61.7063 46.2209C61.9046 46.7653 61.8886 47.2704 61.671 47.3496C61.4534 47.4288 61.1167 47.0521 60.9184 46.5078C60.7207 45.9641 60.7367 45.459 60.9543 45.3798C61.1712 45.3006 61.5087 45.6772 61.7063 46.2209Z" fill="#C3972B"/>
<path d="M58.6763 39.8423C58.9411 40.2569 59.0216 40.6788 58.8559 40.7853C58.6896 40.8911 58.3409 40.6408 58.0753 40.2262C57.8105 39.8116 57.7306 39.3897 57.8963 39.2832C58.062 39.1774 58.4114 39.4277 58.6763 39.8423Z" fill="#C3972B"/>
<path d="M51.292 33.5361C51.5509 33.6779 51.7153 33.8769 51.6587 33.9807C51.6015 34.0838 51.3459 34.0532 51.0871 33.9115C50.8275 33.7697 50.6638 33.5707 50.7204 33.4669C50.7769 33.3638 51.0332 33.3944 51.292 33.5361Z" fill="#C3972B"/>
<path d="M35.6862 42.8437C35.7867 42.2734 36.2838 41.8847 36.7969 41.9752C36.932 41.9992 37.0545 42.0544 37.1603 42.1323C37.1876 41.6172 36.8681 41.16 36.3976 41.0768C35.8845 40.9863 35.3874 41.3749 35.2869 41.9453C35.2131 42.3652 35.3754 42.7658 35.6709 42.9841C35.6736 42.9375 35.6776 42.8909 35.6862 42.8437Z" fill="#C3972B"/>
<path d="M36.9573 37.0339C37.2108 36.612 37.7239 36.455 38.1039 36.6826C38.2037 36.7431 38.2836 36.8236 38.3435 36.9181C38.5225 36.5175 38.4087 36.0577 38.06 35.848C37.6807 35.6204 37.1676 35.7775 36.914 36.1994C36.7277 36.5102 36.7343 36.8775 36.9027 37.1404C36.9187 37.1045 36.9366 37.0685 36.9573 37.0339Z" fill="#C3972B"/>
<path d="M39.3344 32.08C39.5454 31.8731 39.8668 31.8598 40.0525 32.0494C40.1018 32.0993 40.1364 32.1586 40.157 32.2218C40.3207 32.0168 40.324 31.732 40.1537 31.5583C39.9673 31.3686 39.6459 31.3819 39.4349 31.5889C39.2799 31.7413 39.2286 31.9556 39.2865 32.1339C39.3012 32.1153 39.3171 32.0973 39.3344 32.08Z" fill="#C3972B"/>
<path d="M28.9321 44.0555C29.1411 43.5158 29.5996 43.1897 29.9556 43.3275C30.0614 43.3688 30.1453 43.446 30.2072 43.5478C30.2771 43.1212 30.144 42.7405 29.8558 42.6287C29.4998 42.491 29.0412 42.8171 28.8323 43.3568C28.6852 43.7368 28.7018 44.1208 28.8483 44.363C28.8649 44.2625 28.8922 44.1587 28.9321 44.0555Z" fill="#C3972B"/>
<path d="M31.5981 37.9057C31.9036 37.5197 32.3574 37.3706 32.6123 37.5723C32.6875 37.6322 32.7368 37.716 32.7607 37.8145C32.9251 37.4851 32.9131 37.143 32.7068 36.98C32.4526 36.7783 31.9987 36.9274 31.6933 37.3134C31.4776 37.5842 31.3945 37.9003 31.4524 38.1346C31.491 38.0561 31.5395 37.9795 31.5981 37.9057Z" fill="#C3972B"/>
<path d="M35.8252 32.7668C36.0735 32.6077 36.3603 32.611 36.4655 32.7754C36.4967 32.824 36.508 32.8812 36.5021 32.9418C36.6598 32.7874 36.7197 32.5904 36.6345 32.458C36.5293 32.2936 36.2432 32.2896 35.9943 32.4493C35.8193 32.5611 35.7101 32.7242 35.6975 32.8679C35.7347 32.8313 35.7773 32.7974 35.8252 32.7668Z" fill="#C3972B"/>
<path d="M23.3006 46.1112C23.5011 45.5681 23.8397 45.1928 24.0569 45.2727C24.1275 45.2986 24.1762 45.3705 24.2034 45.473C24.2644 45.1149 24.2146 44.8321 24.0569 44.7735C23.8397 44.6937 23.5011 45.069 23.3006 45.6121C23.1653 45.9781 23.1279 46.3275 23.1844 46.5404C23.2075 46.4053 23.2457 46.2596 23.3006 46.1112Z" fill="#C3972B"/>
<path d="M26.5111 39.5861C26.7693 39.1675 27.114 38.9113 27.2817 39.0144C27.3363 39.0477 27.3649 39.1156 27.3702 39.2054C27.4807 38.9173 27.4867 38.673 27.3649 38.5985C27.1978 38.4953 26.8525 38.7515 26.5949 39.1701C26.4205 39.453 26.3307 39.7378 26.3427 39.9248C26.384 39.8157 26.4405 39.7012 26.5111 39.5861Z" fill="#C3972B"/>
<path d="M31.3272 34.2162C31.5408 34.0126 31.7797 33.9168 31.8616 34.0026C31.8875 34.0299 31.8942 34.0738 31.8835 34.1271C31.992 33.9767 32.0326 33.8356 31.9734 33.7737C31.8915 33.6885 31.6526 33.7843 31.439 33.988C31.2946 34.1257 31.1994 34.2768 31.1775 34.3873C31.2181 34.3307 31.2686 34.2721 31.3272 34.2162Z" fill="#C3972B"/>
<path d="M26.0339 46.5677C26.0339 46.5677 25.5347 48.1982 27.3316 47.566L25.3684 48.8637L25.6013 46.9005L26.0339 46.5677Z" fill="#C3972B"/>
<path d="M29.8273 46.8339C29.8273 46.8339 31.3412 46.5844 31.6407 44.8874L31.7572 46.9005L29.8273 46.8339Z" fill="#C3972B"/>
<path d="M32.772 44.4548C32.772 44.4548 32.2895 46.2017 34.0531 45.9688L32.0566 46.7674L32.3228 44.7376L32.772 44.4548Z" fill="#C3972B"/>
<path d="M37.3972 45.5195C37.3972 45.5195 39.194 45.6693 39.2938 43.5896L39.743 45.9022L37.3972 45.5195Z" fill="#C3972B"/>
<path d="M40.0425 43.3068C40.0425 43.3068 39.7264 45.3865 42.3384 45.27L41.9059 45.9355L39.9094 45.5362L40.0425 43.3068Z" fill="#C3972B"/>
<path d="M45.5328 45.3366C45.5328 45.3366 47.5127 45.6028 47.2465 43.1904L47.9286 46.0354L45.5328 45.3366Z" fill="#C3972B"/>
<path d="M47.8287 43.3069C47.8287 43.3069 47.7622 45.5363 49.9916 45.8357L48.228 46.0021L47.7955 45.0372L47.496 43.4067L47.8287 43.3069Z" fill="#C3972B"/>
<path d="M52.6535 46.3015C52.6535 46.3015 54.6833 46.8339 54.0843 44.5546L54.3505 45.0038L54.5502 47.0668L52.6535 46.3015Z" fill="#C3972B"/>
<path d="M54.6833 44.8375C54.65 44.9373 55.1491 46.9005 56.4136 47.3663L54.9162 47.2998L54.5502 45.6028L54.6833 44.8375Z" fill="#C3972B"/>
<path d="M59.1129 48.473C59.1129 48.473 60.3067 49.0799 59.9407 47.749L60.5397 49.4959L59.1421 48.664L59.1129 48.473Z" fill="#C3972B"/>
<path d="M60.523 47.7989C60.523 47.7989 60.6854 49.3714 61.6836 49.8705L60.9389 49.6622L60.5396 48.9302L60.523 47.7989Z" fill="#C3972B"/>
<path d="M34.4464 30.9826V30.2978C34.4464 30.2978 37.1017 28.4704 42.3258 28.5849C47.5506 28.6987 49.3494 30.0975 49.7208 30.383V30.8682C49.7208 30.8682 50.2345 30.4689 49.7494 29.9837C49.7494 29.9837 46.0379 27.3284 38.2723 28.4704C38.2723 28.4704 44.6391 26.9571 49.7494 29.6696C49.7494 29.6696 47.7223 27.7284 42.2693 27.7856C36.8162 27.8422 35.1605 29.2411 34.2754 29.6982C34.2754 29.6982 33.8468 30.1261 34.4464 30.9826Z" fill="#C3972B"/>
<path d="M38.0101 27.8095V22.8397C38.0101 22.7525 37.911 22.6819 37.7879 22.6819C37.6654 22.6819 37.5656 22.7525 37.5656 22.8397V27.928C37.704 27.8887 37.8511 27.8495 38.0101 27.8095Z" fill="#C3972B"/>
<path d="M39.365 22.2813C39.0855 22.2813 38.8593 22.441 38.8593 22.6387V22.8809C38.8985 22.8716 38.9378 22.8629 38.9804 22.8629C39.204 22.8629 39.385 22.9914 39.385 23.1498V27.5354C39.5421 27.5107 39.7031 27.4881 39.8702 27.4668V22.6387C39.8702 22.441 39.6439 22.2813 39.365 22.2813Z" fill="#C3972B"/>
<path d="M41.649 22.0517C41.2917 22.0517 41.0022 22.2573 41.0022 22.5102V22.634C41.2105 22.634 41.3795 22.7537 41.3795 22.9015V27.3543C41.677 27.3456 41.9804 27.3423 42.2959 27.3516V22.5102C42.2959 22.2573 42.0064 22.0517 41.649 22.0517Z" fill="#C3972B"/>
<path d="M45.934 27.7676V22.8397C45.934 22.7525 45.8349 22.682 45.7117 22.682C45.5893 22.682 45.4895 22.7525 45.4895 22.8397V27.6738C45.6372 27.7031 45.7849 27.7337 45.934 27.7676Z" fill="#C3972B"/>
<path d="M44.4388 27.5027V22.6386C44.4388 22.441 44.2125 22.2813 43.933 22.2813C43.6542 22.2813 43.4279 22.441 43.4279 22.6386V27.3996C43.7573 27.4235 44.0947 27.4575 44.4388 27.5027Z" fill="#C3972B"/>
<path d="M38.5119 21.7449C38.5119 21.7449 41.4734 20.8798 44.9339 21.7449V19.2493L44.4348 19.9814L43.8691 18.7169L43.1371 19.7817L42.3385 18.4174L41.673 19.815L40.8744 18.3842L40.3088 19.815L39.5767 18.6836L39.0776 19.8815L38.4787 19.1162L38.5119 21.7449Z" fill="#C3972B"/>
<path d="M42.3051 12.5278H41.3734L38.8572 19.1954L39.0109 19.3917L39.5287 18.1499L39.7822 18.5419L41.5065 13.5926L41.6689 19.2426L42.3158 17.8844L43.1536 19.3165L43.9149 18.2091L44.4799 19.4716L44.5598 19.3544L42.3051 12.5278Z" fill="#C3972B"/>
<path d="M42.3052 12.7275H41.3568V11.3299H42.3052V12.7275Z" fill="#C3972B"/>
<path d="M41.8394 8.26865C40.8744 8.26865 40.0924 9.05061 40.0924 10.0156C40.0924 10.9805 40.8744 11.7625 41.8394 11.7625C42.8043 11.7625 43.5863 10.9805 43.5863 10.0156C43.5863 9.05061 42.8043 8.26865 41.8394 8.26865ZM40.8824 10.3982C41.0933 11.0677 41.6863 11.3738 41.6863 11.3738C40.6148 11.2015 40.2129 9.91974 40.7293 9.25025C41.2464 8.58077 41.9159 8.638 41.9159 8.638C41.0168 8.90553 40.6721 9.72874 40.8824 10.3982Z" fill="#C3972B"/>
<path d="M42.2553 8.63477H41.4568V2.09808e-05H42.2553V8.63477Z" fill="#C3972B"/>
<path d="M45.0943 2.37051V3.1691H38.6177V2.37051H45.0943Z" fill="#C3972B"/>
<path d="M32.5724 47.0621C54.5835 43.7813 64.6656 52.3661 64.6656 52.3661C64.6656 52.3661 59.5746 45.5781 43.2535 45.2653C29.965 45.0104 22.4409 49.1824 19.1462 51.6886C18.8121 52.0267 18.1847 52.8346 19.3314 53.2259C26.0086 49.3181 34.0265 46.969 46.4478 47.7609C59.1754 48.5728 64.7655 53.4641 64.7655 53.4641C54.8829 44.1805 32.5724 47.0621 32.5724 47.0621Z" fill="#C3972B"/>
<path d="M21.3421 55.5105L19.9445 56.2093V51.1682H21.3421V55.5105Z" fill="#C3972B"/>
<path d="M25.7344 53.9301L24.4367 54.2628V49.2716H25.7344V53.9301Z" fill="#C3972B"/>
<path d="M32.4227 52.6656H31.4244V47.5746H32.4227V52.6656Z" fill="#C3972B"/>
<path d="M40.2335 52.1412L39.3351 52.241V46.9257L40.2335 46.8758V52.1412Z" fill="#C3972B"/>
<path d="M48.0949 52.0168H47.496V47.0755H48.0949V52.0168Z" fill="#C3972B"/>
<path d="M54.4836 52.9651L54.6833 49.072L55.1657 53.198L54.4836 52.9651Z" fill="#C3972B"/>
<path d="M60.7227 54.5869L60.8225 51.5922L61.2218 54.7865L60.7227 54.5869Z" fill="#C3972B"/>
<path d="M64.05 56.0429L64.2996 54.3293L64.4493 56.1594L64.05 56.0429Z" fill="#C3972B"/>
<path d="M40.9768 48.3905C40.9768 48.3905 41.3708 50.7078 43.7153 50.7237C46.0605 50.7404 46.6655 48.6887 46.73 48.4784C46.73 48.4784 45.8063 49.8167 44.3069 49.9511C42.8069 50.0855 41.5112 49.3781 40.9768 48.3905Z" fill="#C3972B"/>
<path d="M40.9776 48.4051L40.6441 50.7556L41.7808 50.6938L40.9776 48.4051Z" fill="#C3972B"/>
<path d="M46.7373 48.469L46.0232 50.7436L47.1486 50.8328L46.7373 48.469Z" fill="#C3972B"/>
<path d="M44.4454 48.9835C44.4388 49.3468 44.1386 49.637 43.7753 49.6303C43.4112 49.6243 43.1218 49.3242 43.1277 48.9602C43.1344 48.5961 43.4345 48.3067 43.7979 48.3133C44.1619 48.3193 44.4514 48.6194 44.4454 48.9835Z" fill="#C3972B"/>
<path d="M35.8845 49.249C35.8845 49.6124 35.619 49.9079 35.2916 49.9079C34.9635 49.9079 34.6986 49.6124 34.6986 49.249C34.6986 48.885 34.9635 48.5902 35.2916 48.5902C35.619 48.5902 35.8845 48.885 35.8845 49.249Z" fill="#C3972B"/>
<path d="M28.3032 50.4802C28.3032 50.7743 28.1096 51.0132 27.8713 51.0132C27.6324 51.0132 27.4388 50.7743 27.4388 50.4802C27.4388 50.1854 27.6324 49.9465 27.8713 49.9465C28.1096 49.9465 28.3032 50.1854 28.3032 50.4802Z" fill="#C3972B"/>
<path d="M22.671 52.3888C22.671 52.6544 22.5299 52.8693 22.3559 52.8693C22.1818 52.8693 22.0407 52.6544 22.0407 52.3888C22.0407 52.124 22.1818 51.909 22.3559 51.909C22.5299 51.909 22.671 52.124 22.671 52.3888Z" fill="#C3972B"/>
<path d="M33.0881 49.438C33.0881 49.438 34.8849 51.5343 38.3122 48.8058C38.3122 48.8058 35.1179 53.1647 33.0881 49.438Z" fill="#C3972B"/>
<path d="M33.0881 49.438L32.8552 51.368L33.8534 51.2016L33.0881 49.438Z" fill="#C3972B"/>
<path d="M38.3122 48.8057L37.6467 50.9686L38.8779 50.902L38.3122 48.8057Z" fill="#C3972B"/>
<path d="M51.3679 49.4107C51.3612 49.76 51.6114 50.0475 51.9256 50.0529C52.2403 50.0588 52.4999 49.78 52.5059 49.4306C52.5118 49.0812 52.2623 48.7937 51.9475 48.7884C51.6334 48.7831 51.3739 49.0613 51.3679 49.4107Z" fill="#C3972B"/>
<path d="M54.0671 49.7341C54.0671 49.7341 52.239 51.6534 49.0905 48.865C49.0905 48.865 51.9342 53.2046 54.0671 49.7341Z" fill="#C3972B"/>
<path d="M54.0671 49.7341L54.3672 51.6674L53.4521 51.5176L54.0671 49.7341Z" fill="#C3972B"/>
<path d="M49.0905 48.865L49.7919 51.0185L48.594 50.8521L49.0905 48.865Z" fill="#C3972B"/>
<path d="M26.2668 50.9686C26.2668 50.9686 27.5312 52.2996 30.5592 49.8372C30.5592 49.8372 27.6643 53.7969 26.2668 50.9686Z" fill="#C3972B"/>
<path d="M26.2669 50.9686L26.034 52.6656L26.8658 52.4327L26.2669 50.9686Z" fill="#C3972B"/>
<path d="M30.5592 49.8373L30.9918 51.6342L29.9603 51.7673L30.5592 49.8373Z" fill="#C3972B"/>
<path d="M58.1638 51.0352C58.1638 51.33 58.3568 51.5689 58.5957 51.5689C58.8346 51.5689 59.0283 51.33 59.0283 51.0352C59.0283 50.7404 58.8346 50.5015 58.5957 50.5015C58.3568 50.5015 58.1638 50.7404 58.1638 51.0352Z" fill="#C3972B"/>
<path d="M60.1823 51.5795C60.1823 51.5795 58.872 52.8653 55.9319 50.2991C55.9319 50.2991 58.687 54.3573 60.1823 51.5795Z" fill="#C3972B"/>
<path d="M60.1822 51.5796L60.5063 53.3312L59.7909 53.0397L60.1822 51.5796Z" fill="#C3972B"/>
<path d="M55.9318 50.2992L55.5652 52.0334L56.58 52.1998L55.9318 50.2992Z" fill="#C3972B"/>
<path d="M21.575 52.832C21.575 52.832 22.0741 53.9301 24.0373 51.734C24.0373 51.734 22.0741 55.3942 21.575 52.832Z" fill="#C3972B"/>
<path d="M21.575 52.8321L21.4544 54.2502L21.9036 54.0632L21.575 52.8321Z" fill="#C3972B"/>
<path d="M24.0375 51.7339L24.1996 53.2892L23.6257 53.5015L24.0375 51.7339Z" fill="#C3972B"/>
<path d="M62.7444 53.0043C62.7444 53.2699 62.8854 53.4848 63.0591 53.4848C63.2335 53.4848 63.3746 53.2699 63.3746 53.0043C63.3746 52.7395 63.2335 52.5245 63.0591 52.5245C62.8854 52.5245 62.7444 52.7395 62.7444 53.0043Z" fill="#C3972B"/>
<path d="M63.8617 53.4409C63.8617 53.4409 63.324 54.521 61.4387 52.2577C61.4387 52.2577 63.2734 55.9844 63.8617 53.4409Z" fill="#C3972B"/>
<path d="M63.8617 53.4409L64.0334 54.895L63.5922 54.6954L63.8617 53.4409Z" fill="#C3972B"/>
<path d="M61.4387 52.2577L61.2796 53.6885L61.8207 53.938L61.4387 52.2577Z" fill="#C3972B"/>
<path d="M37.1257 22.0696C37.1257 22.0696 41.0055 20.7153 46.386 22.0696C46.386 22.0696 41.8726 19.2246 37.1257 22.0696Z" fill="#C3972B"/>
<path d="M18.9464 53.0397C18.9464 53.0397 19.3581 53.3391 20.0819 53.4889L20.2066 52.4281L18.9464 53.0397Z" fill="#C3972B"/>
<path d="M39.6552 53.381L34.1742 53.7104V51.9968L39.6552 51.6674V53.381ZM34.5136 53.371L39.3158 53.0416V52.0068L34.5136 52.3362V53.371Z" fill="#C3972B"/>
<path d="M38.8573 53.2113V54.2634L34.9714 54.5223V53.5407H34.632V54.8617L39.4589 54.6028V53.2113H38.8573Z" fill="#C3972B"/>
<path d="M45.055 51.6674L50.5359 51.9968V53.7104L45.055 53.381V51.6674ZM50.1965 52.3362L45.3944 52.0068V53.0416L50.1965 53.371V52.3362Z" fill="#C3972B"/>
<path d="M45.8522 53.2113V54.2634L49.7387 54.5223V53.5407H50.0781V54.8617L45.2014 54.6028V53.2113H45.8522Z" fill="#C3972B"/>
<path d="M29.3614 54.6455L24.7026 55.7735V54.0599L29.3614 52.7488V54.6455ZM24.9912 55.3775L29.0732 54.3061V53.2713L24.9912 54.3993V55.3775Z" fill="#C3972B"/>
<path d="M28.6839 54.4757V55.6437L25.3805 56.409V55.6037H25.092V56.8582L28.972 55.9265V54.4757H28.6839Z" fill="#C3972B"/>
<path d="M54.7838 53.4409L54.7878 53.0416L59.1295 54.1696L59.1521 54.527C61.6717 55.2823 64.1899 56.3378 66.6123 57.6235C66.6123 57.6235 60.0705 51.3007 42.4929 51.4843C24.9159 51.6687 20.0773 55.9598 17.2245 57.4318C17.2245 57.4318 15.9101 58.466 17.4734 59.8216L17.474 59.8276L17.7236 60.0525C17.946 60.1976 18.079 60.2968 18.5721 60.5017L18.56 59.2679L20.4604 58.2637L20.6351 58.1725C19.4995 58.667 18.7945 59.037 18.2393 59.3538L18.1894 59.2373L18.1728 59.0456C18.1788 59.0423 18.1916 58.9159 18.1977 58.9125L18.2061 58.3968L17.8983 58.5385L17.9232 57.2821L21.0754 55.4886L21.0094 56.9327L20.6517 57.1157L20.7349 57.8065C21.9106 57.2947 23.4068 56.7277 25.2159 56.1927L25.207 55.5924H24.7968L24.8817 54.2448L29.223 53.1168L29.2376 54.4478L28.7851 54.5143L28.8024 55.2856C30.5859 54.9056 32.5804 54.5815 34.7785 54.3599L34.7672 53.5294H34.2847L34.3147 53.1261C32.8013 53.2679 31.2341 53.4542 29.609 53.6931C29.609 53.6931 31.3938 53.2692 34.332 52.8952L34.3845 52.1818L39.4922 51.8524L39.4995 52.4327C41.2444 52.3415 43.1557 52.3062 45.1768 52.3681L45.1502 51.8504L50.341 52.1665V52.7428C51.7978 52.9111 53.2845 53.1401 54.7838 53.4409Z" fill="#C3972B"/>
<path d="M55.2263 54.4391L54.7738 54.3726L54.7771 54.0711C53.4388 53.7843 51.9834 53.5267 50.4095 53.3184L50.4248 53.5294H49.9423L49.929 54.5216C51.8975 54.7392 53.6491 55.0181 55.2063 55.3349L55.2263 54.4391Z" fill="#C3972B"/>
<path d="M54.6501 52.6736L59.3085 53.9847V55.6983L54.6501 54.571V52.6736ZM59.0203 54.3241L54.9382 53.1961V54.2316L59.0203 55.3023V54.3241Z" fill="#C3972B"/>
<path d="M55.3274 54.4012V55.5685L58.6309 56.3338V55.5285H58.9191V56.783L55.0393 55.8513V54.4012H55.3274Z" fill="#C3972B"/>
<path d="M21.0731 57.1044L17.7845 58.7548V57.1949L21.0731 55.3908V57.1044ZM17.9881 58.3961L20.8695 56.9048V55.8899L17.9881 57.3979V58.3961Z" fill="#C3972B"/>
<path d="M20.5945 57.2376V57.9936L18.263 59.1662V58.3796H18.0594V59.5535L20.7982 58.2059V57.0712L20.5945 57.2376Z" fill="#C3972B"/>
<path d="M63.2149 57.354L62.9261 57.0066L62.9287 56.6266C61.9092 56.1827 60.6667 55.7029 59.1967 55.2364L59.2146 55.5173H58.804L58.7941 56.2167C60.6321 56.7571 62.0782 57.3347 63.2016 57.8711L63.2149 57.354Z" fill="#C3972B"/>
<path d="M62.8382 55.4906L66.1271 57.2948V58.8547L62.8382 57.2043V55.4906ZM65.9234 57.4978L63.0418 55.9898V57.0046L65.9234 58.496V57.4978Z" fill="#C3972B"/>
<path d="M63.3167 57.3374V58.0934L65.6486 59.266V58.4794H65.8522V59.6906L63.1131 58.3057V57.1711L63.3167 57.3374Z" fill="#C3972B"/>
<path d="M65.988 57.2076C65.988 57.2076 66.9863 57.6687 67.0242 58.4926C67.0615 59.3158 66.2256 59.9773 65.439 60.1643L65.3645 59.2659L65.7012 59.4283L65.7265 58.5552L65.9634 58.655L65.988 57.2076Z" fill="#C3972B"/>
<path d="M28.8789 55.9764L29.977 55.7934V54.5955L28.7791 54.9116L28.8789 55.9764Z" fill="#C3972B"/>
<path d="M55.1658 55.9431L54.0012 55.8766V54.7619L55.2323 54.9449L55.1658 55.9431Z" fill="#C3972B"/>
<path d="M20.5686 58.2557L22.2157 58.1306V56.8828L20.6934 57.4817L20.5686 58.2557Z" fill="#C3972B"/>
<path d="M63.2182 58.3802L61.5958 58.1559V56.9081L63.1929 57.6315L63.2182 58.3802Z" fill="#C3972B"/>
<path d="M45.2273 56.8914H39.349C39.349 56.8914 42.0456 54.3958 45.2273 56.8914Z" fill="#C3972B"/>
<path d="M35.384 56.8914L31.1249 57.324L33.7536 56.0928L35.4173 56.5587L35.384 56.8914Z" fill="#C3972B"/>
<path d="M49.3926 56.8914L53.6518 57.324L51.0231 56.0928L49.3594 56.5587L49.3926 56.8914Z" fill="#C3972B"/>
<path d="M23.9043 58.7548L25.7178 58.2723V57.8065L25.385 57.5942L23.9043 58.7548Z" fill="#C3972B"/>
<path d="M60.1902 58.7548L58.3767 58.2723V57.8065L58.7095 57.5942L60.1902 58.7548Z" fill="#C3972B"/>
<path d="M43.8465 58.1392H40.6501V63.4632H43.8465V58.1392Z" fill="#C3972B"/>
<path d="M39.7151 57.2669V64.3045H44.8859V57.2669H39.7151ZM44.1459 63.7628H40.3506V57.8399H44.1459V63.7628Z" fill="#C3972B"/>
<path d="M32.3062 63.7114L35.3602 63.372V58.2424L32.3062 58.5572V63.7114Z" fill="#C3972B"/>
<path d="M32.0067 64.0462V58.287L35.3601 57.941V57.2668L31.467 57.6402V64.6777L35.3601 64.3044V63.6735L32.0067 64.0462Z" fill="#C3972B"/>
<path d="M35.4672 63.6616L35.4339 63.3641L35.3601 63.3721V63.6736L35.4672 63.6616Z" fill="#C3972B"/>
<path d="M35.3993 58.2384L35.3687 57.9403L35.3601 57.9409V58.2424L35.3993 58.2384Z" fill="#C3972B"/>
<path d="M52.3375 58.5572L49.4167 58.2557V63.3873L52.3375 63.7114V58.5572Z" fill="#C3972B"/>
<path d="M49.4167 57.2668V57.9549L52.637 58.287V64.0462L49.4167 63.6881V64.3044L53.3098 64.6777V57.6402L49.4167 57.2668Z" fill="#C3972B"/>
<path d="M35.5192 65.8424V54.579H35.1798V65.8424H35.5192Z" fill="#C3972B"/>
<path d="M24.5698 59.4836L25.6845 59.228V58.655L24.08 59.0623V65.2434L25.6845 65.0105V64.4275L24.5698 64.6032V59.4836Z" fill="#C3972B"/>
<path d="M24.8693 64.2525L25.6445 64.13L25.6845 64.3836V59.5355L24.8693 59.7225V64.2525Z" fill="#C3972B"/>
<path d="M25.7679 59.5161L25.7008 59.224L25.6845 59.228V59.5354L25.7679 59.5161Z" fill="#C3972B"/>
<path d="M25.6845 64.3836V64.4275L25.6912 64.4262L25.6845 64.3836Z" fill="#C3972B"/>
<path d="M58.41 58.655V59.2626L59.375 59.4836V64.6032L58.41 64.4508V65.0105L60.0146 65.2434V59.0623L58.41 58.655Z" fill="#C3972B"/>
<path d="M59.0755 59.7225L58.41 59.5694V64.148L59.0755 64.2525V59.7225Z" fill="#C3972B"/>
<path d="M25.8716 65.8424V56.459H25.5322V65.8424H25.8716Z" fill="#C3972B"/>
<path d="M49.6297 65.8424V54.5956H49.2903V65.8424H49.6297Z" fill="#C3972B"/>
<path d="M58.4793 65.8424V56.4091H58.1399V65.8424H58.4793Z" fill="#C3972B"/>
<path d="M22.8894 65.8424H22.54V56.8583L22.8894 56.6586V65.8424Z" fill="#C3972B"/>
<path d="M60.9455 65.8424H61.3448V56.8583L60.9455 56.6586V65.8424Z" fill="#C3972B"/>
<path d="M34.9183 72.1978H34.3859V66.3414H34.9183V72.1978Z" fill="#C3972B"/>
<path d="M36.7816 71.6567H36.2492V66.3415H36.7816V71.6567Z" fill="#C3972B"/>
<path d="M24.47 73.2291H23.9376V66.3415H24.47V73.2291Z" fill="#C3972B"/>
<path d="M26.3334 73.1625H25.801V66.3415H26.3334V73.1625Z" fill="#C3972B"/>
<path d="M58.601 73.2291H58.0686V66.3415H58.601V73.2291Z" fill="#C3972B"/>
<path d="M60.4644 73.1625H59.932V66.3415H60.4644V73.1625Z" fill="#C3972B"/>
<path d="M48.9268 72.1978H49.4592V66.3414H48.9268V72.1978Z" fill="#C3972B"/>
<path d="M47.0634 71.6567H47.5958V66.3415H47.0634V71.6567Z" fill="#C3972B"/>
<path d="M33.0808 68.3466H28.7391V73.1382H29.362V68.9056H32.3886V73.037H32.0892V69.2051H29.6615V73.1382H33.0808V68.3466Z" fill="#C3972B"/>
<path d="M29.362 73.3098H29.6615V73.1382H29.362V73.3098Z" fill="#C3972B"/>
<path d="M55.1658 68.3466H50.8241V73.1382H51.473V68.9056H54.4996V73.037H54.2001V69.2051H51.7724V73.1382H55.1658V68.3466Z" fill="#C3972B"/>
<path d="M51.4729 73.3098H51.7724V73.1382H51.4729V73.3098Z" fill="#C3972B"/>
<path d="M41.8859 70.6452L26.4219 76.1817L41.8859 70.0722L68.8836 80H71.6913L41.8134 69.1611L41.3728 69.3275L13.0994 80H20.3069C28.5215 76.8991 41.2537 72.0926 41.8307 71.875C42.3578 72.066 54.6966 76.5424 64.2271 80H67.2771L41.8859 70.6452Z" fill="#C3972B"/>
<path d="M31.3539 73.6667L19.2416 73.6055L32.3574 73.2962L33.333 72.9362L33.3277 72.6271L17.955 72.8956L17.1914 72.9087C17.1914 72.9087 17.2102 73.9802 17.2156 74.288C16.2315 74.535 10.7144 76.1888 10.5615 76.2273C10.389 76.2303 0 76.9002 0 76.9002L10.7143 77.3474L18.7637 75.4735C18.7637 75.4735 18.749 74.6239 18.7451 74.4092C19.6645 74.393 25.8469 74.2854 29.8692 74.215L31.3539 73.6667Z" fill="#C3972B"/>
<path d="M53.2552 73.6667L65.3671 73.6055L52.2516 73.2962L51.276 72.9362L51.2814 72.6271L66.6542 72.8956L67.4175 72.9087C67.4175 72.9087 67.3989 73.9802 67.3936 74.288C68.3778 74.535 73.8947 76.1888 74.0478 76.2273C74.2202 76.2303 84.6091 76.9002 84.6091 76.9002L73.8947 77.3474L65.845 75.4735C65.845 75.4735 65.8603 74.6239 65.8636 74.4092C64.9445 74.393 58.7621 74.2854 54.7399 74.215L53.2552 73.6667Z" fill="#C3972B"/>
<path d="M39.9061 60.7367C39.8302 60.5856 39.7098 60.4638 39.5554 60.3813C39.602 60.2742 39.6279 60.1531 39.6279 60.0273C39.6279 59.6167 39.3717 59.2952 39.0456 59.2952C38.7189 59.2952 38.4633 59.6167 38.4633 60.0273C38.4633 60.1544 38.4893 60.2775 38.5365 60.3846C38.2197 60.5637 38.1306 60.7826 38.1306 61.325C38.1306 61.3822 38.1233 61.4122 38.1186 61.4255C38.08 61.4288 37.9915 61.4108 37.9369 61.3995C37.7865 61.3676 38.052 61.6517 37.9023 61.7376C37.6255 61.8953 37.3586 61.9745 37.5929 62.5262C37.7106 62.8037 37.889 63.223 37.867 63.3554C37.7985 63.7667 37.9176 65.2647 37.9316 65.4337L37.9462 65.6174H39.6818L39.7211 65.4683C39.8369 65.0231 39.8762 64.7043 39.9074 64.4481C39.9294 64.2691 39.9467 64.128 39.9833 64.0169C40.0405 63.8459 40.0365 63.5204 40.0319 63.1431C40.0279 62.7997 40.0226 62.3718 40.0791 62.2307C40.2448 61.8168 40.1137 61.152 39.9061 60.7367Z" fill="#C3972B"/>
<path d="M39.7278 60.8259C39.6293 60.6295 39.4423 60.5217 39.246 60.4785C39.3551 60.3846 39.4283 60.2183 39.4283 60.0273C39.4283 59.7331 39.2566 59.4949 39.0456 59.4949C38.834 59.4949 38.663 59.7331 38.663 60.0273C38.663 60.2169 38.7349 60.3826 38.8427 60.4771C38.7881 60.4891 38.7382 60.5051 38.6963 60.5264C38.4301 60.6595 38.3302 60.7593 38.3302 61.325C38.3302 61.8907 38.0687 61.9146 37.8358 62.0477C37.6029 62.1808 38.1306 62.9887 38.0641 63.388C37.9975 63.7873 38.1306 65.4178 38.1306 65.4178H39.5281C39.7278 64.6524 39.6945 64.2531 39.7943 63.9537C39.8942 63.6542 39.7611 62.4896 39.8942 62.1568C40.0272 61.8241 39.9274 61.2252 39.7278 60.8259Z" fill="#C3972B"/>
<path d="M14.914 61.2645C15.0191 61.0715 15.2098 60.9704 15.4074 60.9344C15.3019 60.8366 15.2345 60.6682 15.2412 60.4766C15.2515 60.1831 15.431 59.9508 15.6422 59.9581C15.8534 59.9655 16.0163 60.2097 16.006 60.5032C15.9994 60.6935 15.9216 60.8566 15.8106 60.9464C15.8646 60.9604 15.9141 60.9783 15.9554 61.001C16.2168 61.1434 16.3131 61.2465 16.2933 61.8122C16.2736 62.3772 16.4108 62.4158 16.639 62.5569C16.8671 62.698 16.4348 63.4819 16.4873 63.8832C16.5399 64.2845 16.35 65.909 16.35 65.909L14.9534 65.8604C14.7805 65.0884 14.8277 64.6905 14.7384 64.3877C14.6491 64.0849 14.8227 62.9256 14.7013 62.5888C14.5799 62.2514 14.7006 61.6565 14.914 61.2645Z" fill="#C3972B"/>
<path d="M55.2789 60.7866C55.2031 60.6355 55.0826 60.5137 54.9282 60.4312C54.9748 60.324 55.0008 60.2029 55.0008 60.0771C55.0008 59.6665 54.7445 59.3451 54.4184 59.3451C54.0917 59.3451 53.8361 59.6665 53.8361 60.0771C53.8361 60.2043 53.8621 60.3274 53.9093 60.4345C53.5926 60.6135 53.5034 60.8325 53.5034 61.3749C53.5034 61.4321 53.4961 61.462 53.4914 61.4753C53.4528 61.4787 53.7536 61.9006 53.6984 61.8893C53.548 61.8573 53.3776 61.8214 53.2272 61.9072C52.951 62.0656 52.7853 62.0796 53.0196 62.6313C53.1374 62.9088 53.2618 63.2728 53.2399 63.4053C53.1713 63.8165 53.2904 65.3146 53.3044 65.4836L53.3191 65.6673H55.0547L55.0939 65.5182C55.2097 65.073 55.249 64.7542 55.2803 64.498C55.3022 64.319 55.3195 64.1779 55.3561 64.0668C55.4134 63.8957 55.4094 63.5703 55.4047 63.193C55.4007 62.8496 55.3954 62.4217 55.452 62.2806C55.6177 61.8666 55.4866 61.2018 55.2789 60.7866Z" fill="#C3972B"/>
<path d="M55.1006 60.8757C55.0021 60.6794 54.8151 60.5716 54.6188 60.5283C54.728 60.4345 54.8012 60.2681 54.8012 60.0771C54.8012 59.783 54.6295 59.5447 54.4185 59.5447C54.2069 59.5447 54.0358 59.783 54.0358 60.0771C54.0358 60.2668 54.1077 60.4325 54.2155 60.527C54.161 60.539 54.111 60.555 54.0691 60.5762C53.8029 60.7093 53.7031 60.8092 53.7031 61.3748C53.7031 61.9405 53.4768 62.0157 53.2439 62.1488C53.011 62.2819 53.5035 63.0386 53.4369 63.4379C53.3704 63.8372 53.5035 65.4676 53.5035 65.4676H54.901C55.1006 64.7023 55.0674 64.303 55.1672 64.0035C55.267 63.7041 55.1339 62.5394 55.267 62.2067C55.4001 61.874 55.3003 61.275 55.1006 60.8757Z" fill="#C3972B"/>
<path d="M44.8247 60.7367C44.9006 60.5856 45.021 60.4638 45.1754 60.3813C45.1282 60.2742 45.1029 60.1531 45.1029 60.0273C45.1029 59.6167 45.3591 59.2952 45.6852 59.2952C46.0119 59.2952 46.2675 59.6167 46.2675 60.0273C46.2675 60.1544 46.2415 60.2775 46.1943 60.3846C46.5111 60.5637 46.6002 60.7826 46.6002 61.325C46.6002 61.3822 46.6076 61.4122 46.6122 61.4255C46.6508 61.4288 46.7393 61.4108 46.7939 61.3995C46.9443 61.3676 47.1153 61.3316 47.2651 61.4175C47.5419 61.5759 47.3722 61.9745 47.138 62.5262C47.0202 62.8037 46.8418 63.223 46.8638 63.3554C46.9323 63.7667 46.8132 65.2647 46.7992 65.4337L46.7846 65.6174H45.049L45.0097 65.4683C44.8939 65.0231 44.8547 64.7043 44.8234 64.4481C44.8014 64.2691 44.7841 64.128 44.7475 64.0169C44.6903 63.8459 44.6943 63.5204 44.6989 63.1431C44.7029 62.7997 44.7082 62.3718 44.6517 62.2307C44.486 61.8168 44.6171 61.152 44.8247 60.7367Z" fill="#C3972B"/>
<path d="M45.0031 60.8259C45.1016 60.6295 45.2886 60.5217 45.4849 60.4785C45.3757 60.3846 45.3025 60.2183 45.3025 60.0273C45.3025 59.7331 45.4742 59.4949 45.6852 59.4949C45.8968 59.4949 46.0679 59.7331 46.0679 60.0273C46.0679 60.2169 45.996 60.3826 45.8882 60.4771C45.9427 60.4891 45.9927 60.5051 46.0346 60.5264C46.3008 60.6595 46.4006 60.7593 46.4006 61.325C46.4006 61.8907 46.933 61.4581 47.1659 61.5912C47.3988 61.7243 46.6002 62.9887 46.6668 63.388C46.7333 63.7873 46.6002 65.4178 46.6002 65.4178H45.2027C45.0031 64.6524 45.0363 64.2531 44.9365 63.9537C44.8367 63.6542 44.9698 62.4896 44.8367 62.1568C44.7036 61.8241 44.8034 61.2252 45.0031 60.8259Z" fill="#C3972B"/>
<path d="M23.4324 61.136C23.3567 60.9849 23.2361 60.8631 23.0818 60.7806C23.1285 60.6735 23.1539 60.5524 23.1539 60.4266C23.1539 60.016 22.8981 59.6945 22.5717 59.6945C22.2451 59.6945 21.9893 60.016 21.9893 60.4266C21.9893 60.5537 22.0153 60.6768 22.063 60.784C21.7459 60.963 21.6566 61.1819 21.6566 61.7243C21.6566 61.7815 21.6496 61.8115 21.6451 61.8248C21.6063 61.8281 21.5179 61.8101 21.463 61.7988C21.3124 61.7669 21.1417 61.7309 20.9918 61.8168C20.7154 61.9752 20.8847 62.3738 21.1191 62.9255C21.237 63.203 21.4151 63.6223 21.3931 63.7547C21.3244 64.166 21.4437 65.664 21.4576 65.833L21.4726 66.0167H23.2083L23.2473 65.8676C23.3634 65.4224 23.4023 65.1037 23.4336 64.8474C23.4553 64.6684 23.4726 64.5273 23.5098 64.4162C23.5668 64.2452 23.5629 63.9197 23.5583 63.5424C23.5542 63.199 23.549 62.7711 23.6056 62.63C23.7712 62.2161 23.64 61.5513 23.4324 61.136Z" fill="#C3972B"/>
<path d="M23.2536 61.2252C23.1553 61.0289 22.9683 60.9211 22.7721 60.8778C22.881 60.784 22.9542 60.6176 22.9542 60.4266C22.9542 60.1325 22.7829 59.8942 22.5715 59.8942C22.3601 59.8942 22.1888 60.1325 22.1888 60.4266C22.1888 60.6163 22.261 60.782 22.3687 60.8765C22.3143 60.8885 22.2642 60.9045 22.2221 60.9258C21.9559 61.0588 21.8561 61.1587 21.8561 61.7243C21.8561 62.29 21.3237 61.8574 21.0908 61.9905C20.8579 62.1236 21.6565 63.3881 21.5899 63.7874C21.5234 64.1867 21.6565 65.8171 21.6565 65.8171H23.054C23.2536 65.0518 23.2204 64.6525 23.3202 64.353C23.42 64.0536 23.2869 62.8889 23.42 62.5562C23.5531 62.2235 23.4533 61.6245 23.2536 61.2252Z" fill="#C3972B"/>
<path d="M69.0486 61.265C68.9434 61.0721 68.7531 60.9709 68.5554 60.935C68.6606 60.8371 68.7278 60.6688 68.7211 60.4771C68.7112 60.1836 68.5315 59.9514 68.3205 59.9587C68.1089 59.966 67.9465 60.2102 67.9565 60.5037C67.9631 60.694 68.041 60.8571 68.1522 60.9476C68.0982 60.9609 68.0483 60.9789 68.0071 61.0015C67.7455 61.1439 67.6497 61.2471 67.669 61.8127C67.689 62.3777 67.6045 62.5395 67.3769 62.6805C67.1486 62.8216 67.5279 63.4825 67.4753 63.8837C67.4228 64.285 67.6124 65.9095 67.6124 65.9095L69.0093 65.8609C69.1823 65.089 69.1351 64.6917 69.2243 64.3889C69.3134 64.0861 69.1397 62.9268 69.2615 62.5894C69.3826 62.252 69.2622 61.657 69.0486 61.265Z" fill="#C3972B"/>
<path d="M60.5303 61.136C60.6061 60.9849 60.7266 60.8631 60.881 60.7806C60.8337 60.6735 60.8084 60.5524 60.8084 60.4266C60.8084 60.016 61.0647 59.6945 61.3908 59.6945C61.7175 59.6945 61.9731 60.016 61.9731 60.4266C61.9731 60.5537 61.9471 60.6768 61.8999 60.784C62.2166 60.963 62.3058 61.1819 62.3058 61.7243C62.3058 61.7815 62.3131 61.8115 62.3178 61.8248C62.3564 61.8281 62.4449 61.8101 62.4995 61.7988C62.6499 61.7669 62.8209 61.7309 62.9706 61.8168C63.2475 61.9752 63.0778 62.3738 62.8435 62.9255C62.7257 63.203 62.5474 63.6223 62.5693 63.7547C62.6379 64.166 62.5188 65.664 62.5048 65.833L62.4901 66.0167H60.7545L60.7153 65.8676C60.5995 65.4224 60.5602 65.1037 60.5289 64.8474C60.507 64.6684 60.4897 64.5273 60.4531 64.4162C60.3958 64.2452 60.3998 63.9197 60.4045 63.5424C60.4085 63.199 60.4138 62.7711 60.3572 62.63C60.1915 62.2161 60.3226 61.5513 60.5303 61.136Z" fill="#C3972B"/>
<path d="M60.7086 61.2252C60.8071 61.0289 60.9941 60.9211 61.1904 60.8778C61.0813 60.784 61.0081 60.6176 61.0081 60.4266C61.0081 60.1325 61.1798 59.8942 61.3908 59.8942C61.6024 59.8942 61.7734 60.1325 61.7734 60.4266C61.7734 60.6163 61.7015 60.782 61.5937 60.8765C61.6483 60.8885 61.6982 60.9045 61.7401 60.9258C62.0063 61.0588 62.1062 61.1587 62.1062 61.7243C62.1062 62.29 62.6386 61.8574 62.8715 61.9905C63.1044 62.1236 62.3058 63.3881 62.3724 63.7874C62.4389 64.1867 62.3058 65.8171 62.3058 65.8171H60.9083C60.7086 65.0518 60.7419 64.6525 60.6421 64.353C60.5423 64.0536 60.6754 62.8889 60.5423 62.5562C60.4092 62.2235 60.509 61.6245 60.7086 61.2252Z" fill="#C3972B"/>
<path d="M28.8663 60.9863C28.9422 60.8352 29.0626 60.7134 29.217 60.6309C29.1704 60.5237 29.1451 60.4026 29.1451 60.2769C29.1451 59.8662 29.4007 59.5448 29.7274 59.5448C30.0542 59.5448 30.3097 59.8662 30.3097 60.2769C30.3097 60.404 30.2838 60.5271 30.2359 60.6342C30.5533 60.8132 30.6425 61.0322 30.6425 61.5746C30.6425 61.6318 30.6491 61.6617 30.6538 61.675C30.6924 61.6784 30.4235 62.0431 30.4781 62.0318C30.6285 62.0005 31.1569 61.5812 31.3073 61.6671C31.5835 61.8254 31.0564 62.6067 30.8222 63.1584C30.7044 63.4359 30.8841 63.4725 30.906 63.605C30.9746 64.0162 30.8554 65.5143 30.8415 65.6833L30.8262 65.867H29.0906L29.052 65.7179C28.9355 65.2727 28.8969 64.9539 28.8656 64.6977C28.8437 64.5187 28.8264 64.3776 28.7891 64.2665C28.7325 64.0954 28.7359 63.77 28.7405 63.3927C28.7445 63.0493 28.7498 62.6214 28.6933 62.4803C28.5276 62.0664 28.6593 61.4015 28.8663 60.9863Z" fill="#C3972B"/>
<path d="M29.0452 61.0754C29.1437 60.8791 29.3307 60.7712 29.5264 60.728C29.4179 60.6342 29.3447 60.4678 29.3447 60.2768C29.3447 59.9826 29.5157 59.7444 29.7274 59.7444C29.9383 59.7444 30.11 59.9826 30.11 60.2768C30.11 60.4665 30.0375 60.6322 29.9303 60.7267C29.9842 60.7386 30.0348 60.7546 30.0767 60.7759C30.3429 60.909 30.4428 61.0088 30.4428 61.5745C30.4428 62.1402 30.6171 62.0903 30.85 62.2234C31.083 62.3564 30.6424 63.2382 30.709 63.6375C30.7755 64.0368 30.6424 65.6673 30.6424 65.6673H29.2449C29.0452 64.902 29.0785 64.5027 28.9787 64.2032C28.8789 63.9037 29.012 62.7391 28.8789 62.4064C28.7458 62.0736 28.8456 61.4747 29.0452 61.0754Z" fill="#C3972B"/>
<path d="M7.25532 66.036C7.25532 66.036 46.9516 64.5141 76.7556 66.036C76.7556 66.036 36.4256 67.6845 7.25532 66.036Z" fill="#C3972B"/>
<path d="M22.127 71.5429V69.7561H18.0511L18.0731 71.5429H22.127Z" fill="#C3972B"/>
<path d="M17.1096 68.8403V72.4271H23.1123V68.8403H17.1096ZM22.4564 71.8723H17.7478L17.7176 69.4266H22.4564V71.8723Z" fill="#C3972B"/>
<path d="M16.534 68.9368C16.4582 68.9368 16.3856 68.8929 16.3522 68.8197C16.3065 68.7192 16.3509 68.6008 16.4512 68.5555L20.1009 66.8965L23.7262 68.479C23.8272 68.5236 23.8734 68.6407 23.8293 68.7419C23.7852 68.843 23.6677 68.8889 23.5664 68.845L20.1043 67.3337L16.6165 68.9189C16.5897 68.9309 16.5616 68.9368 16.534 68.9368Z" fill="#C3972B"/>
<path d="M20.1026 68.7852C19.6359 68.7852 19.2561 68.4052 19.2561 67.9387C19.2561 67.4715 19.6359 67.0921 20.1026 67.0921C20.5693 67.0921 20.9491 67.4715 20.9491 67.9387C20.9491 68.4052 20.5693 68.7852 20.1026 68.7852ZM20.1026 67.4914C19.856 67.4914 19.6554 67.6918 19.6554 67.9387C19.6554 68.1849 19.856 68.3859 20.1026 68.3859C20.3492 68.3859 20.5499 68.1849 20.5499 67.9387C20.5499 67.6918 20.3492 67.4914 20.1026 67.4914Z" fill="#C3972B"/>
<path d="M66.3653 71.5429V69.7561H62.2898L62.3118 71.5429H66.3653Z" fill="#C3972B"/>
<path d="M61.3482 68.8403V72.4271H67.3509V68.8403H61.3482ZM66.6948 71.8723H61.9864L61.9565 69.4266H66.6948V71.8723Z" fill="#C3972B"/>
<path d="M60.7726 68.9368C60.6967 68.9368 60.6242 68.8929 60.5909 68.8197C60.545 68.7192 60.5896 68.6008 60.6901 68.5555L64.3396 66.8965L67.9645 68.479C68.0657 68.5236 68.1123 68.6407 68.0677 68.7419C68.0238 68.843 67.906 68.8889 67.8048 68.845L64.3429 67.3337L60.8551 68.9189C60.8285 68.9309 60.8005 68.9368 60.7726 68.9368Z" fill="#C3972B"/>
<path d="M64.3409 68.7852C63.8744 68.7852 63.4944 68.4052 63.4944 67.9387C63.4944 67.4715 63.8744 67.0921 64.3409 67.0921C64.808 67.0921 65.1874 67.4715 65.1874 67.9387C65.1874 68.4052 64.808 68.7852 64.3409 68.7852ZM64.3409 67.4914C64.0946 67.4914 63.8936 67.6918 63.8936 67.9387C63.8936 68.1849 64.0946 68.3859 64.3409 68.3859C64.5878 68.3859 64.7881 68.1849 64.7881 67.9387C64.7881 67.6918 64.5878 67.4914 64.3409 67.4914Z" fill="#C3972B"/>
</svg>
